<svg id="Layer_1" data-name="Layer 1" xmlns="http://www.w3.org/2000/svg" viewBox="0 0 879.75 51.12"><defs><style>.cls-1{fill:none;stroke:#92a5b2;stroke-miterlimit:10;}</style></defs><title>welcome</title><path class="cls-1" d="M213.33,394.33,201,345.8h6.63l5.76,24.56c1.44,6,2.73,12.09,3.6,16.77h.14c.79-4.82,2.3-10.58,4-16.85l6.48-24.48h6.55l5.91,24.63c1.37,5.76,2.66,11.52,3.38,16.63h.15c1-5.33,2.37-10.73,3.88-16.78l6.41-24.48h6.41l-13.75,48.53H240l-6.12-25.27a142.14,142.14,0,0,1-3.17-15.84h-.15a150.48,150.48,0,0,1-3.74,15.84l-6.91,25.27Z" transform="translate(-200.38 -344.51)"/><path class="cls-1" d="M291.45,371.58H272.59v17.5h21v5.25H266.32V345.8h26.21v5.26H272.59V366.4h18.86Z" transform="translate(-200.38 -344.51)"/><path class="cls-1" d="M301.75,345.8H308v43.28h20.74v5.25h-27Z" transform="translate(-200.38 -344.51)"/><path class="cls-1" d="M366.84,392.75c-2.31,1.15-6.91,2.3-12.82,2.3-13.68,0-24-8.64-24-24.55,0-15.19,10.3-25.49,25.35-25.49,6.05,0,9.86,1.3,11.52,2.16l-1.51,5.11a22.86,22.86,0,0,0-9.79-2c-11.38,0-18.94,7.27-18.94,20,0,11.89,6.84,19.52,18.65,19.52a25,25,0,0,0,10.22-2Z" transform="translate(-200.38 -344.51)"/><path class="cls-1" d="M414.65,369.56c0,16.71-10.16,25.57-22.54,25.57-12.82,0-21.82-9.94-21.82-24.63,0-15.41,9.58-25.49,22.54-25.49C406.08,345,414.65,355.16,414.65,369.56Zm-37.66.8c0,10.37,5.61,19.65,15.48,19.65S408,380.87,408,369.85c0-9.65-5-19.73-15.48-19.73S377,359.7,377,370.36Z" transform="translate(-200.38 -344.51)"/><path class="cls-1" d="M463.68,373c-.36-6.77-.79-14.9-.72-20.95h-.22c-1.65,5.69-3.67,11.73-6.12,18.43l-8.57,23.55H443.3l-7.85-23.12c-2.3-6.84-4.25-13.1-5.61-18.86h-.15c-.14,6.05-.5,14.18-.93,21.45l-1.3,20.81h-6l3.39-48.53h8l8.28,23.48c2,6,3.67,11.3,4.9,16.34h.21c1.23-4.89,3-10.22,5.12-16.34L460,345.8h8l3,48.53H464.9Z" transform="translate(-200.38 -344.51)"/><path class="cls-1" d="M505.8,371.58H486.93v17.5h21v5.25H480.67V345.8h26.21v5.26H486.93V366.4H505.8Z" transform="translate(-200.38 -344.51)"/><path class="cls-1" d="M537.62,351.13H522.86V345.8h35.93v5.33H544v43.2h-6.33Z" transform="translate(-200.38 -344.51)"/><path class="cls-1" d="M603.72,369.56c0,16.71-10.16,25.57-22.54,25.57-12.82,0-21.82-9.94-21.82-24.63,0-15.41,9.58-25.49,22.54-25.49C595.15,345,603.72,355.16,603.72,369.56Zm-37.66.8c0,10.37,5.61,19.65,15.48,19.65s15.55-9.14,15.55-20.16c0-9.65-5-19.73-15.48-19.73S566.06,359.7,566.06,370.36Z" transform="translate(-200.38 -344.51)"/><path class="cls-1" d="M668,373c-.36-6.77-.79-14.9-.72-20.95h-.21c-1.66,5.69-3.68,11.73-6.12,18.43l-8.57,23.55h-4.76l-7.84-23.12c-2.31-6.84-4.25-13.1-5.62-18.86H634c-.14,6.05-.5,14.18-.93,21.45l-1.3,20.81h-6l3.38-48.53h8l8.28,23.48c2,6,3.68,11.3,4.9,16.34h.22c1.22-4.89,2.95-10.22,5.11-16.34l8.64-23.48h8l3,48.53h-6.12Z" transform="translate(-200.38 -344.51)"/><path class="cls-1" d="M695.8,394.33V373.74L680.46,345.8h7.13l6.84,13.4c1.87,3.67,3.31,6.62,4.83,10h.14c1.37-3.16,3-6.33,4.9-10l7-13.4h7.13l-16.27,27.87v20.66Z" transform="translate(-200.38 -344.51)"/><path class="cls-1" d="M739.21,346.38a72,72,0,0,1,12-.94c6.19,0,10.73,1.44,13.61,4a13.09,13.09,0,0,1,4.25,10.16c0,4.39-1.3,7.85-3.75,10.37-3.31,3.52-8.71,5.32-14.83,5.32a21.58,21.58,0,0,1-5-.43v19.44h-6.27Zm6.27,23.4a21,21,0,0,0,5.18.5c7.56,0,12.17-3.67,12.17-10.36,0-6.41-4.54-9.51-11.45-9.51a26.84,26.84,0,0,0-5.9.5Z" transform="translate(-200.38 -344.51)"/><path class="cls-1" d="M819,369.56c0,16.71-10.15,25.57-22.53,25.57-12.82,0-21.82-9.94-21.82-24.63,0-15.41,9.57-25.49,22.53-25.49C810.42,345,819,355.16,819,369.56Zm-37.66.8c0,10.37,5.62,19.65,15.49,19.65s15.55-9.14,15.55-20.16c0-9.65-5-19.73-15.48-19.73S781.33,359.7,781.33,370.36Z" transform="translate(-200.38 -344.51)"/><path class="cls-1" d="M827.12,346.45a65.14,65.14,0,0,1,12-1c6.7,0,11,1.23,14,4a12.1,12.1,0,0,1,3.82,9.22c0,6.41-4,10.66-9.15,12.38v.22c3.75,1.3,6,4.75,7.13,9.79,1.59,6.77,2.74,11.45,3.75,13.32h-6.49c-.79-1.36-1.87-5.54-3.24-11.59-1.44-6.7-4-9.22-9.72-9.43h-5.9v21h-6.27Zm6.27,22.11h6.41c6.69,0,10.94-3.68,10.94-9.22,0-6.27-4.53-9-11.16-9.07a25.78,25.78,0,0,0-6.19.57Z" transform="translate(-200.38 -344.51)"/><path class="cls-1" d="M875.72,351.13H861V345.8h35.93v5.33H882.06v43.2h-6.34Z" transform="translate(-200.38 -344.51)"/><path class="cls-1" d="M902.29,345.8h26.14v5.26H908.56v16.13h18.36v5.18H908.56v22h-6.27Z" transform="translate(-200.38 -344.51)"/><path class="cls-1" d="M978.83,369.56c0,16.71-10.15,25.57-22.54,25.57-12.81,0-21.82-9.94-21.82-24.63,0-15.41,9.58-25.49,22.54-25.49C970.26,345,978.83,355.16,978.83,369.56Zm-37.66.8c0,10.37,5.62,19.65,15.48,19.65s15.56-9.14,15.56-20.16c0-9.65-5-19.73-15.49-19.73S941.17,359.7,941.17,370.36Z" transform="translate(-200.38 -344.51)"/><path class="cls-1" d="M987,345.8h6.27v43.28H1014v5.25H987Z" transform="translate(-200.38 -344.51)"/><path class="cls-1" d="M1027.21,345.8v48.53H1021V345.8Z" transform="translate(-200.38 -344.51)"/><path class="cls-1" d="M1079.63,369.56c0,16.71-10.15,25.57-22.54,25.57-12.82,0-21.82-9.94-21.82-24.63,0-15.41,9.58-25.49,22.54-25.49C1071.06,345,1079.63,355.16,1079.63,369.56Zm-37.66.8c0,10.37,5.62,19.65,15.48,19.65s15.55-9.14,15.55-20.16c0-9.65-5-19.73-15.48-19.73S1042,359.7,1042,370.36Z" transform="translate(-200.38 -344.51)"/></svg>
