<?xml version="1.0" encoding="utf-8"?>
<!-- Generator: Adobe Illustrator 23.0.1, SVG Export Plug-In . SVG Version: 6.00 Build 0)  -->
<svg version="1.1" id="Layer_1" xmlns="http://www.w3.org/2000/svg" xmlns:xlink="http://www.w3.org/1999/xlink" x="0px" y="0px"
	 viewBox="0 0 666 666" style="enable-background:new 0 0 666 666;" xml:space="preserve">
<style type="text/css">
	.st0{fill:#FC3E38;}
	.st1{fill:#FEFEFE;}
	.st2{fill:#FEFCFC;}
	.st3{fill:#FD6E6A;}
</style>
<g>
	<path class="st0" d="M61,1c0.7,0,1.3,0,2,0c1.9,0.3,3.8,1,5.7,1c176.8,0,353.7,0,530.5,0c1.9,0,3.8-0.6,5.7-1c0.3,0,0.7,0,1,0
		c2.3,0.7,4.6,1.5,6.9,2c24,4.7,40.3,18.8,49.2,41.4c2.2,5.7,3.3,11.8,5,17.7c0,0.3,0,0.7,0,1c-0.3,1.9-1,3.8-1,5.7
		c0,132,0,264,0,396c0,2.1,0.6,4.2,1,6.3c0,1,0,2,0,3c-0.7,1.8-1.6,3.5-1.9,5.4c-4.8,31.6-33.6,54.4-64.6,54.4
		c-154.1,0.1-308.3,0-462.4,0.2c-2.2,0-4.8,1.2-6.4,2.7c-11.4,11.1-22.6,22.5-33.9,33.7c-19.6,19.4-39.3,38.8-58.9,58.2
		c-12.1,12-24.1,24.2-36.1,36.3c-0.3-2.6-0.8-5.2-0.8-7.8C2,461.6,2,266.2,2,70.7c0-2.6-0.6-5.2-1-7.7c0-0.7,0-1.3,0-2
		c0.3-0.7,0.8-1.4,0.9-2.1C5,37.3,15.9,20.6,35,10.2C43,5.9,52.3,4,61,1z M599.8,68.3c-177.4,0-354.5,0-531.5,0
		c0,154.7,0,309.1,0,464.3c1.7-1.5,2.9-2.6,4-3.7c19.3-19.3,38.7-38.6,57.9-58c2.8-2.8,5.6-4,9.6-3.9c151.2,0.1,302.3,0.1,453.5,0.1
		c2.1,0,4.2,0,6.6,0C599.8,333.9,599.8,201.3,599.8,68.3z"/>
	<path class="st1" d="M2.8,664.9c12-12.1,24-24.3,36.1-36.3c19.6-19.5,39.3-38.8,58.9-58.2c11.3-11.2,22.5-22.6,33.9-33.7
		c1.6-1.5,4.2-2.7,6.4-2.7c154.1-0.1,308.3,0,462.4-0.2c30.9,0,59.7-22.8,64.6-54.4c0.3-1.9,1.3-3.6,1.9-5.4c0,64.3,0,128.7,0,193
		c-221.7,0-443.3,0-665,0C2.3,666.3,2.5,665.6,2.8,664.9z"/>
	<path class="st2" d="M667,62c-1.6-5.9-2.7-12-5-17.7C653.2,21.7,636.9,7.7,612.9,3c-2.3-0.5-4.6-1.3-6.9-2c20.3,0,40.7,0,61,0
		C667,21.3,667,41.7,667,62z"/>
	<path class="st2" d="M61,1c-8.7,3-18,4.9-26,9.2C15.9,20.6,5,37.3,1.9,58.9C1.8,59.6,1.3,60.3,1,61C1,41,1,21,1,1C21,1,41,1,61,1z"
		/>
	<path class="st3" d="M2.8,664.9c-0.3,0.7-0.5,1.4-0.8,2.1c-0.3-0.2-0.9-0.3-1-0.5c-0.1-1.3,0-2.7,0-4C1,462.7,1,262.8,1,63
		c0.3,2.6,1,5.2,1,7.7C2,266.2,2,461.6,2,657.1C2,659.7,2.5,662.3,2.8,664.9z"/>
	<path class="st3" d="M605,1c-1.9,0.3-3.8,1-5.7,1C422.4,2,245.6,2,68.7,2c-1.9,0-3.8-0.6-5.7-1C243.7,1,424.3,1,605,1z"/>
	<path class="st3" d="M667,471c-0.3-2.1-1-4.2-1-6.3c0-132,0-264,0-396c0-1.9,0.6-3.8,1-5.7C667,199,667,335,667,471z"/>
	<path class="st1" d="M599.8,68.3c0,133,0,265.6,0,398.7c-2.3,0-4.4,0-6.6,0c-151.2,0-302.3,0-453.5-0.1c-4,0-6.8,1.1-9.6,3.9
		c-19.2,19.4-38.6,38.7-57.9,58c-1.1,1.1-2.3,2.2-4,3.7c0-155.1,0-309.5,0-464.3C245.3,68.3,422.4,68.3,599.8,68.3z M274.4,180.9
		c29,0,57.5,0,86.5,0c0,79.2,0,157.8,0,236.5c20.4,0,40.2,0,60.6,0c0-78.9,0-157.5,0-236.8c29,0,57.6,0,86.1,0c0-17.3,0-34,0-50.9
		c-77.8,0-155.4,0-233.2,0C274.4,146.7,274.4,163.4,274.4,180.9z M241.8,417.6c0-96.1,0-192,0-287.7c-20,0-39.6,0-59.3,0
		c0,96.1,0,191.8,0,287.7C202.4,417.6,222,417.6,241.8,417.6z"/>
	<path class="st0" d="M274.4,180.9c0-17.6,0-34.2,0-51.1c77.8,0,155.4,0,233.2,0c0,16.9,0,33.5,0,50.9c-28.5,0-57,0-86.1,0
		c0,79.3,0,157.9,0,236.8c-20.4,0-40.3,0-60.6,0c0-78.8,0-157.4,0-236.5C331.9,180.9,303.3,180.9,274.4,180.9z"/>
	<path class="st0" d="M241.8,417.6c-19.8,0-39.3,0-59.3,0c0-95.9,0-191.7,0-287.7c19.6,0,39.3,0,59.3,0
		C241.8,225.6,241.8,321.5,241.8,417.6z"/>
</g>
</svg>
