<?xml version="1.0" encoding="utf-8"?>
<!-- Generator: Adobe Illustrator 22.1.0, SVG Export Plug-In . SVG Version: 6.00 Build 0)  -->
<svg version="1.1" id="Layer_1" xmlns="http://www.w3.org/2000/svg" xmlns:xlink="http://www.w3.org/1999/xlink" x="0px" y="0px"
	 viewBox="0 0 100 100" style="enable-background:new 0 0 100 100;" xml:space="preserve">
<style type="text/css">
	.st0{fill:#FFFFFF;}
</style>
<g id="logo">
	<rect x="-119.6" y="-0.2" width="100" height="101.2"/>
	<g>
		<path class="st0" d="M-32.5,53.6c-1.4,7.4-4.2,14.2-9.2,19.8c-6,6.9-13.7,11.1-22.7,12.8c-0.5,0.1-1,0.3-1.5,0.4
			c-3.4,0-6.8,0-10.2-0.1c-10.2-1.8-18.9-6.4-25.2-14.7c-4.4-5.7-7.1-12-7.9-19.3c-0.1-0.5-0.2-1-0.4-1.5c0-2,0-4.1,0-6.1
			c0.6-3,1-6,2.1-8.9c5.4-15.2,16.3-23.9,32.2-26.3c0.4-0.1,0.8-0.2,1.2-0.4c2,0,4.1,0,6.1,0c6.2,0.8,12.1,2.5,17.4,5.8
			c9.8,6.2,15.6,15,17.7,26.3c0.1,0.6,0.3,1.1,0.4,1.7C-32.4,46.8-32.4,50.2-32.5,53.6z M-33.3,48.6c0.2-20.9-16.3-37.8-37.1-38
			c-20.7-0.2-37.7,16.4-37.9,37c-0.2,20.9,16.6,38.2,37.3,38.2C-50.5,85.7-33.6,69.1-33.3,48.6z"/>
		<path class="st0" d="M-71.3,84C-91,83.9-107,67.7-106.8,47.9c0.1-20.1,16.2-35.9,36.4-35.8c19.6,0.1,35.7,16.4,35.6,36.1
			C-35,68.2-51.2,84.1-71.3,84z M-78.3,35.9c2.3-0.6,1.7,1.4,2,2.3c0.7,1.9,0.9,4,3.8,4c-0.5-1-0.9-1.8-1.3-2.7
			c0.2-0.3,0.4-0.5,0.5-0.8c2.1,1,4.2,2.1,6,3c-0.3-2.2-1-4.1-4.6-3.6c-1,0.1-2.6-1.7-3.2-3c-0.3-0.6,0.6-2.5,1.5-2.9
			c6.1-3.5,12.6-5,19-1.1c6.8,4.2,9,11,8.8,18.6c0,0.6-0.9,1.2-1.7,2.1c-1.9,8-5.7,15.6-12,21.7c5.7-3.6,9-9.2,12.4-14.6
			c5.3-8.4,2.9-21.7-4.3-28.3c-3.7-3.3-7.8-4.8-12.6-3.5c-3.2,0.9-6.4,2.1-9.6,3.3c-2.1,0.8-4.1,1.7-5.5-0.8c-2.2,1.1-4.2,2-6.2,3
			c0.4,0.3,1,0.8,1.6,1.2c-0.9,0.6-1.7,1.2-2.3,1.6c2.2-0.5,4.3-1,6.4-1.3C-79.1,34.3-78.7,35.4-78.3,35.9
			c-3.3,3.5-5.6,7.5-6.5,12.2c-1.3,7,1.9,12.2,7.4,13.2c-1.1-1.9-2.4-4.2-3.9-6.7c1.1-0.3,1.6-0.4,2.2-0.6
			C-81,47.7-81.2,41.7-78.3,35.9z M-88.1,30.3c0.1-0.2,0.3-0.5,0.4-0.7c2.7,2.4,4.9,1.2,7.2-0.5c0.6-0.4,2.1-0.5,2.4-0.1
			c1.4,1.8,2.8,1,4.3,0.4c3-1.1,6-2.7,9.1-3c3.2-0.5,6.9-0.8,9.6,0.7c11,5.5,14.2,18.9,10.8,28.1c-3.3,8.7-8.6,16.2-16.8,21.2
			c-3.6,2.2-7.3,4.3-11.6,6.7c2.8-0.2,5-0.1,7-0.4c19-2.8,32.3-20.8,29.5-39.9C-39.1,23.9-57,10.7-76,13.6
			c-16,2.4-29,16.1-29.8,31.6c-0.9,17.7,9.7,32.7,26.3,36.8c1.7,0.4,3.7,0.2,5.4-0.3c8.4-2.4,14.7-8.2,19.3-15.1
			c3.4-5.2,7.9-10.7,5.5-18c-0.1-0.2,0.2-0.4,0.4-0.8c0.7,0.4,1.4,0.8,2.1,1.3c-0.2-2.3-0.1-4.4-0.6-6.4
			c-2.4-11.3-16.6-16.4-25.7-9.2c-0.6,0.4-0.7,2.2-0.3,2.8c0.5,0.7,1.8,1.1,2.8,1.1c2.3,0,3.7,0.9,4.2,3.2c0.2,0.8,0.6,1.6,1,2.3
			c2,3.2,2.1,3.9-0.1,7.3c-1.7-3.3-1-8.1-6.4-9.5c1.5,2.1,2.7,3.8,3.9,5.5c-7.8-4.3-7.8-4.3-9.6-8.4c-1.8,3.1,0.5,10.5,3.5,12.4
			c1-0.9,2-2.3,2.6-2.2c1.4,0.4,3.1,1.3,3.9,2.5c1.3,2.1-0.1,3.8-2.3,3c-2.3-0.9-4.6-2.4-6.3-4.2c-1.3-1.4-1.9-3.5-3-5.8
			c-0.3,5.9,0.2,10.9,5,15c-1.7-0.2-2.8-0.4-3.9-0.6c-0.1,0.1-0.2,0.3-0.3,0.4c1.7,1.3,3.5,2.7,5.5,4.2c-5.7,0.8-11-2.8-12.5-8
			c-1.5-4.9,0.1-9.4,2.4-13.7c1-1.8,2.2-3.6,3.4-5.6c-4.4-0.6-6.3,2.1-7.7,5.4c-0.3-0.1-0.6-0.3-0.9-0.4c0.6-2.3,1.2-4.6,1.8-6.9
			C-87,32.6-87.5,31.4-88.1,30.3z M-70.3,53.3c1-0.8,1.4-1.2,1.9-1.6c-0.8-0.9-1.6-1.9-2.5-2.7c-0.1-0.1-1.6,1.2-1.6,1.3
			C-71.9,51.2-71.2,52.1-70.3,53.3z"/>
	</g>
	<g>
		<path d="M87,55.3c-1.4,7.4-4.1,14.2-9.1,19.9c-6,6.9-13.6,11.2-22.6,12.9c-0.5,0.1-1,0.3-1.5,0.4c-3.4,0-6.8,0-10.2,0
			C33.4,86.8,24.7,82.2,18.3,74c-4.4-5.7-7.2-12-8-19.2c-0.1-0.5-0.2-1-0.4-1.5c0-2,0-4.1,0-6.1c0.6-3,1-6,2-8.9
			c5.3-15.2,16.1-24,32-26.5c0.4-0.1,0.8-0.2,1.2-0.4c2,0,4.1,0,6.1,0c6.2,0.8,12.1,2.4,17.4,5.7c9.8,6.1,15.7,14.9,17.9,26.2
			c0.1,0.6,0.3,1.1,0.4,1.7C87,48.5,87,51.9,87,55.3z M86.1,50.3c0.1-20.9-16.5-37.7-37.3-37.8c-20.7-0.1-37.6,16.6-37.7,37.2
			c-0.1,20.9,16.8,38.1,37.5,38C69.2,87.6,86,70.8,86.1,50.3z"/>
		<path d="M48.4,86c-19.7,0-35.8-16.1-35.8-35.9c0-20.1,16-36,36.2-36c19.6,0,35.8,16.2,35.8,35.9C84.6,70,68.5,86,48.4,86z
			 M41.1,37.9c2.3-0.6,1.7,1.4,2,2.3c0.7,1.9,0.9,4,3.8,4c-0.5-1-0.9-1.8-1.3-2.7c0.2-0.3,0.4-0.5,0.5-0.8c2.1,1,4.2,2.1,6,3
			c-0.3-2.2-1-4.1-4.6-3.6c-1,0.1-2.6-1.7-3.2-3c-0.3-0.6,0.6-2.5,1.5-2.9c6.1-3.5,12.6-5.1,19-1.2c6.8,4.2,9.1,10.9,8.9,18.5
			c0,0.6-0.9,1.2-1.7,2.1c-1.8,8-5.6,15.6-11.9,21.8c5.7-3.6,8.9-9.3,12.3-14.7c5.2-8.4,2.8-21.7-4.5-28.3
			c-3.7-3.3-7.8-4.7-12.6-3.4c-3.2,0.9-6.4,2.1-9.6,3.4c-2.1,0.8-4.1,1.7-5.5-0.8c-2.2,1.1-4.2,2-6.2,3c0.4,0.3,1,0.8,1.6,1.2
			c-0.9,0.6-1.7,1.2-2.3,1.6c2.2-0.5,4.3-1,6.4-1.3C40.2,36.3,40.7,37.4,41.1,37.9c-3.3,3.5-5.6,7.5-6.4,12.2
			c-1.3,7,2,12.2,7.5,13.2c-1.1-1.9-2.4-4.2-3.9-6.7c1.1-0.3,1.6-0.4,2.2-0.6C38.4,49.8,38.2,43.8,41.1,37.9z M31.2,32.4
			c0.1-0.2,0.3-0.5,0.4-0.7c2.7,2.4,4.9,1.2,7.2-0.5c0.6-0.4,2.1-0.5,2.4-0.1c1.4,1.8,2.8,1,4.3,0.4c3-1.1,6-2.7,9.1-3.1
			c3.2-0.5,6.9-0.8,9.6,0.6c11,5.4,14.3,18.8,11,28c-3.2,8.7-8.5,16.3-16.7,21.3c-3.6,2.2-7.3,4.3-11.6,6.8c2.8-0.2,5-0.1,7-0.4
			c19-2.9,32.2-21,29.2-40.1c-2.9-18.9-20.9-32-39.9-29c-16,2.5-28.9,16.3-29.6,31.8C12.8,65.1,23.5,80,40.1,84
			c1.7,0.4,3.7,0.2,5.4-0.3c8.4-2.5,14.6-8.3,19.2-15.2c3.4-5.2,7.8-10.8,5.4-18c-0.1-0.2,0.2-0.4,0.4-0.8c0.7,0.4,1.4,0.8,2.1,1.3
			c-0.2-2.3-0.1-4.4-0.6-6.4c-2.5-11.3-16.7-16.3-25.8-9c-0.6,0.4-0.7,2.2-0.3,2.8c0.5,0.7,1.8,1.1,2.8,1.1c2.3,0,3.7,0.9,4.2,3.2
			c0.2,0.8,0.6,1.6,1,2.3c2,3.2,2.1,3.9-0.1,7.3c-1.7-3.3-1.1-8.1-6.5-9.5c1.5,2.1,2.7,3.8,3.9,5.5c-7.8-4.2-7.8-4.2-9.7-8.3
			c-1.8,3.1,0.6,10.5,3.6,12.4c1-0.9,2-2.3,2.6-2.2c1.4,0.4,3.1,1.3,3.9,2.5c1.3,2.1-0.1,3.8-2.3,3c-2.3-0.9-4.6-2.4-6.3-4.2
			c-1.3-1.4-1.9-3.5-3-5.8c-0.3,5.9,0.3,10.9,5.1,15c-1.7-0.2-2.8-0.4-3.9-0.6c-0.1,0.1-0.2,0.3-0.3,0.4c1.7,1.3,3.5,2.7,5.5,4.2
			c-5.7,0.8-11-2.7-12.6-7.9c-1.5-4.9,0-9.4,2.3-13.7c1-1.8,2.2-3.6,3.4-5.6c-4.4-0.6-6.3,2.1-7.7,5.4c-0.3-0.1-0.6-0.3-0.9-0.4
			c0.6-2.3,1.2-4.6,1.8-6.9C32.3,34.7,31.8,33.5,31.2,32.4z M49.2,55.3c1-0.8,1.4-1.2,1.9-1.6c-0.8-0.9-1.6-1.9-2.5-2.7
			c-0.1-0.1-1.6,1.2-1.6,1.3C47.6,53.2,48.3,54.1,49.2,55.3z"/>
	</g>
</g>
<g id="Layer_1_1_">
	<g>
		<path class="st0" d="M-152,55.9c-1.4,7.4-4.1,14.2-9.1,19.9c-6,6.9-13.6,11.2-22.6,12.9c-0.5,0.1-1,0.3-1.5,0.4
			c-3.4,0-6.8,0-10.2,0c-10.2-1.7-18.9-6.3-25.3-14.5c-4.4-5.7-7.2-12-8-19.2c-0.1-0.5-0.2-1-0.4-1.5c0-2,0-4.1,0-6.1
			c0.6-3,1-6,2-8.9c5.3-15.2,16.1-24,32-26.5c0.4-0.1,0.8-0.2,1.2-0.4c2,0,4.1,0,6.1,0c6.2,0.8,12.1,2.4,17.4,5.7
			c9.8,6.1,15.7,14.9,17.9,26.2c0.1,0.6,0.3,1.1,0.4,1.7C-152,49.1-152,52.5-152,55.9z M-152.9,50.9c0.1-20.9-16.5-37.7-37.3-37.8
			c-20.7-0.1-37.6,16.6-37.7,37.2c-0.1,20.9,16.8,38.1,37.5,38C-169.8,88.2-153,71.4-152.9,50.9z"/>
		<path class="st0" d="M-190.6,86.6c-19.7,0-35.8-16.1-35.8-35.9c0-20.1,16-36,36.2-36c19.6,0,35.8,16.2,35.8,35.9
			C-154.4,70.6-170.5,86.6-190.6,86.6z M-197.9,38.5c2.3-0.6,1.7,1.4,2,2.3c0.7,1.9,0.9,4,3.8,4c-0.5-1-0.9-1.8-1.3-2.7
			c0.2-0.3,0.4-0.5,0.5-0.8c2.1,1,4.2,2.1,6,3c-0.3-2.2-1-4.1-4.6-3.6c-1,0.1-2.6-1.7-3.2-3c-0.3-0.6,0.6-2.5,1.5-2.9
			c6.1-3.5,12.6-5.1,19-1.2c6.8,4.2,9.1,10.9,8.9,18.5c0,0.6-0.9,1.2-1.7,2.1c-1.8,8-5.6,15.6-11.9,21.8c5.7-3.6,8.9-9.3,12.3-14.7
			c5.2-8.4,2.8-21.7-4.5-28.3c-3.7-3.3-7.8-4.7-12.6-3.4c-3.2,0.9-6.4,2.1-9.6,3.4c-2.1,0.8-4.1,1.7-5.5-0.8c-2.2,1.1-4.2,2-6.2,3
			c0.4,0.3,1,0.8,1.6,1.2c-0.9,0.6-1.7,1.2-2.3,1.6c2.2-0.5,4.3-1,6.4-1.3C-198.8,36.9-198.3,38-197.9,38.5
			c-3.3,3.5-5.6,7.5-6.4,12.2c-1.3,7,2,12.2,7.5,13.2c-1.1-1.9-2.4-4.2-3.9-6.7c1.1-0.3,1.6-0.4,2.2-0.6
			C-200.6,50.4-200.8,44.4-197.9,38.5z M-207.8,33c0.1-0.2,0.3-0.5,0.4-0.7c2.7,2.4,4.9,1.2,7.2-0.5c0.6-0.4,2.1-0.5,2.4-0.1
			c1.4,1.8,2.8,1,4.3,0.4c3-1.1,6-2.7,9.1-3.1c3.2-0.5,6.9-0.8,9.6,0.6c11,5.4,14.3,18.8,11,28c-3.2,8.7-8.5,16.3-16.7,21.3
			c-3.6,2.2-7.3,4.3-11.6,6.8c2.8-0.2,5-0.1,7-0.4c19-2.9,32.2-21,29.2-40.1c-2.9-18.9-20.9-32-39.9-29c-16,2.5-28.9,16.3-29.6,31.8
			c-0.8,17.7,9.9,32.6,26.5,36.6c1.7,0.4,3.7,0.2,5.4-0.3c8.4-2.5,14.6-8.3,19.2-15.2c3.4-5.2,7.8-10.8,5.4-18
			c-0.1-0.2,0.2-0.4,0.4-0.8c0.7,0.4,1.4,0.8,2.1,1.3c-0.2-2.3-0.1-4.4-0.6-6.4c-2.5-11.3-16.7-16.3-25.8-9
			c-0.6,0.4-0.7,2.2-0.3,2.8c0.5,0.7,1.8,1.1,2.8,1.1c2.3,0,3.7,0.9,4.2,3.2c0.2,0.8,0.6,1.6,1,2.3c2,3.2,2.1,3.9-0.1,7.3
			c-1.7-3.3-1.1-8.1-6.5-9.5c1.5,2.1,2.7,3.8,3.9,5.5c-7.8-4.2-7.8-4.2-9.7-8.3c-1.8,3.1,0.6,10.5,3.6,12.4c1-0.9,2-2.3,2.6-2.2
			c1.4,0.4,3.1,1.3,3.9,2.5c1.3,2.1-0.1,3.8-2.3,3c-2.3-0.9-4.6-2.4-6.3-4.2c-1.3-1.4-1.9-3.5-3-5.8c-0.3,5.9,0.3,10.9,5.1,15
			c-1.7-0.2-2.8-0.4-3.9-0.6c-0.1,0.1-0.2,0.3-0.3,0.4c1.7,1.3,3.5,2.7,5.5,4.2c-5.7,0.8-11-2.7-12.6-7.9c-1.5-4.9,0-9.4,2.3-13.7
			c1-1.8,2.2-3.6,3.4-5.6c-4.4-0.6-6.3,2.1-7.7,5.4c-0.3-0.1-0.6-0.3-0.9-0.4c0.6-2.3,1.2-4.6,1.8-6.9
			C-206.7,35.3-207.2,34.1-207.8,33z M-189.8,55.9c1-0.8,1.4-1.2,1.9-1.6c-0.8-0.9-1.6-1.9-2.5-2.7c-0.1-0.1-1.6,1.2-1.6,1.3
			C-191.4,53.8-190.7,54.7-189.8,55.9z"/>
	</g>
</g>
</svg>
